<?xml version="1.0" encoding="UTF-8"?>
<svg
	viewBox="0 0 680 520"
	xmlns="http://www.w3.org/2000/svg"
	preserveAspectRatio="xMidYMid slice"
>
	<rect width="680" height="520" fill="#010820" />
	<rect x="0" y="320" width="680" height="200" fill="#020c2a" />
	<rect x="40" y="200" width="600" height="160" rx="4" fill="#0a1840" />
	<rect x="40" y="200" width="600" height="6" fill="#0d2460" />
	<rect x="60" y="206" width="560" height="150" rx="0" fill="#071230" />
	<rect x="80" y="230" width="90" height="110" rx="4" fill="#0d1e45" />
	<rect x="80" y="230" width="90" height="6" fill="#1a3a80" />
	<rect x="190" y="240" width="60" height="100" rx="30" fill="#071830" stroke="#1a3a80" stroke-width="1" />
	<rect x="195" y="245" width="50" height="90" rx="25" fill="#050f20" />
	<rect x="212" y="290" width="16" height="30" fill="#00B4D8" opacity="0.3" />
	<rect x="212" y="280" width="16" height="15" fill="#00B4D8" opacity="0.6" />
	<rect x="212" y="270" width="16" height="12" fill="#00B4D8" opacity="0.9" />
	<rect x="270" y="250" width="40" height="90" rx="3" fill="#0a1840" stroke="#1a3a80" stroke-width="0.5" />
	<rect x="275" y="255" width="30" height="60" rx="2" fill="#071230" />
	<line x1="285" y1="315" x2="290" y2="315" stroke="#00B4D8" stroke-width="1" opacity="0.8" />
	<line x1="285" y1="305" x2="290" y2="305" stroke="#00B4D8" stroke-width="1" opacity="0.6" />
	<line x1="285" y1="295" x2="290" y2="295" stroke="#00B4D8" stroke-width="1" opacity="0.4" />
	<rect x="325" y="220" width="120" height="120" rx="3" fill="#081530" stroke="#1a3a80" stroke-width="0.5" />
	<rect x="330" y="225" width="110" height="50" rx="2" fill="#0a1e45" />
	<rect x="335" y="230" width="30" height="8" rx="1" fill="#00B4D8" opacity="0.7" />
	<rect x="370" y="230" width="20" height="8" rx="1" fill="#00B4D8" opacity="0.4" />
	<rect x="395" y="230" width="40" height="8" rx="1" fill="#00B4D8" opacity="0.5" />
	<rect x="335" y="244" width="100" height="6" rx="1" fill="#1a3a80" opacity="0.5" />
	<rect x="335" y="254" width="80" height="6" rx="1" fill="#1a3a80" opacity="0.3" />
	<rect x="330" y="280" width="50" height="50" rx="2" fill="#0d1e45" />
	<circle cx="355" cy="305" r="18" fill="none" stroke="#00B4D8" stroke-width="0.8" opacity="0.6" />
	<circle cx="355" cy="305" r="10" fill="none" stroke="#00B4D8" stroke-width="0.8" opacity="0.4" />
	<line x1="337" y1="305" x2="373" y2="305" stroke="#00B4D8" stroke-width="0.5" opacity="0.5" />
	<line x1="355" y1="287" x2="355" y2="323" stroke="#00B4D8" stroke-width="0.5" opacity="0.5" />
	<rect x="385" y="280" width="60" height="50" rx="2" fill="#0d1e45" />
	<rect x="390" y="290" width="10" height="30" rx="1" fill="#00B4D8" opacity="0.8" />
	<rect x="405" y="298" width="10" height="22" rx="1" fill="#00B4D8" opacity="0.5" />
	<rect x="420" y="285" width="10" height="35" rx="1" fill="#00B4D8" opacity="0.65" />
	<rect x="460" y="235" width="80" height="105" rx="3" fill="#050e25" stroke="#1a3a80" stroke-width="0.5" />
	<rect x="465" y="240" width="70" height="35" rx="2" fill="#081530" />
	<line x1="470" y1="248" x2="530" y2="248" stroke="#00B4D8" stroke-width="0.4" opacity="0.4" />
	<line x1="470" y1="255" x2="520" y2="255" stroke="#00B4D8" stroke-width="0.4" opacity="0.3" />
	<line x1="470" y1="262" x2="525" y2="262" stroke="#00B4D8" stroke-width="0.4" opacity="0.4" />
	<circle cx="475" cy="290" r="6" fill="#00B4D8" opacity="0.6" />
	<circle cx="495" cy="290" r="6" fill="#0077A8" opacity="0.6" />
	<circle cx="515" cy="290" r="6" fill="#00B4D8" opacity="0.3" />
	<rect x="465" y="305" width="70" height="28" rx="2" fill="#081530" />
	<rect x="470" y="310" width="20" height="18" rx="1" fill="#0d2460" stroke="#1a3a80" stroke-width="0.3" />
	<rect x="495" y="310" width="20" height="18" rx="1" fill="#0d2460" stroke="#1a3a80" stroke-width="0.3" />
	<rect x="520" y="310" width="10" height="18" rx="1" fill="#0d2460" stroke="#1a3a80" stroke-width="0.3" />
	<line x1="150" y1="206" x2="150" y2="360" stroke="#1a3a80" stroke-width="0.5" opacity="0.5" />
	<line x1="260" y1="206" x2="260" y2="360" stroke="#1a3a80" stroke-width="0.5" opacity="0.5" />
	<line x1="455" y1="206" x2="455" y2="360" stroke="#1a3a80" stroke-width="0.5" opacity="0.5" />
	<rect x="40" y="355" width="600" height="8" rx="1" fill="#0d2460" />
	<rect x="60" y="363" width="8" height="30" fill="#0d2460" />
	<rect x="180" y="363" width="8" height="30" fill="#0d2460" />
	<rect x="300" y="363" width="8" height="30" fill="#0d2460" />
	<rect x="420" y="363" width="8" height="30" fill="#0d2460" />
	<rect x="610" y="363" width="8" height="30" fill="#0d2460" />
	<circle cx="120" cy="170" r="3" fill="#00B4D8" opacity="0.8" />
	<circle cx="200" cy="140" r="2" fill="#00B4D8" opacity="0.5" />
	<circle cx="350" cy="120" r="4" fill="#00B4D8" opacity="0.6" />
	<circle cx="480" cy="155" r="2" fill="#00B4D8" opacity="0.4" />
	<circle cx="560" cy="130" r="3" fill="#00B4D8" opacity="0.7" />
	<circle cx="80" cy="100" r="1.5" fill="#00B4D8" opacity="0.5" />
	<circle cx="620" cy="180" r="2" fill="#00B4D8" opacity="0.6" />
	<line x1="0" y1="60" x2="680" y2="60" stroke="#0d2460" stroke-width="0.3" opacity="0.4" />
	<line x1="0" y1="120" x2="680" y2="120" stroke="#0d2460" stroke-width="0.3" opacity="0.4" />
	<line x1="0" y1="180" x2="680" y2="180" stroke="#0d2460" stroke-width="0.3" opacity="0.3" />
	<line x1="100" y1="0" x2="100" y2="200" stroke="#0d2460" stroke-width="0.3" opacity="0.3" />
	<line x1="200" y1="0" x2="200" y2="200" stroke="#0d2460" stroke-width="0.3" opacity="0.3" />
	<line x1="340" y1="0" x2="340" y2="200" stroke="#0d2460" stroke-width="0.3" opacity="0.3" />
	<line x1="480" y1="0" x2="480" y2="200" stroke="#0d2460" stroke-width="0.3" opacity="0.3" />
	<line x1="580" y1="0" x2="580" y2="200" stroke="#0d2460" stroke-width="0.3" opacity="0.3" />
</svg>
